<svg id="regular" enable-background="new 0 0 24 24" height="512" viewBox="0 0 24 24" width="512" xmlns="http://www.w3.org/2000/svg"><path d="m22.25 0h-2.5c-.965 0-1.75.785-1.75 1.75v.366c-1.512-.77-4.946-2.116-10.531-2.116h-1.6c-2.319 0-4.286 1.658-4.68 3.942l-1.12 6.5c-.238 1.387.145 2.797 1.049 3.871.904 1.072 2.228 1.687 3.631 1.687h4.536c-.283.76-.566 1.868-.566 3.25 0 3.757 2.126 4.75 3.25 4.75 2.076 0 2.25-1.936 2.25-3.75 0-2.214 2.483-4.054 3.794-4.872.067.904.816 1.622 1.737 1.622h2.5c.965 0 1.75-.785 1.75-1.75v-13.5c0-.965-.785-1.75-1.75-1.75zm-9.531 20.25c0 2.25-.381 2.25-.75 2.25-.704 0-1.75-.866-1.75-3.25 0-2.216.868-3.574.874-3.584.153-.23.168-.526.037-.77-.13-.244-.385-.396-.661-.396h-5.72c-.96 0-1.865-.42-2.483-1.153-.619-.734-.881-1.7-.718-2.649l1.12-6.5c.269-1.564 1.615-2.698 3.201-2.698h1.6c6.803 0 10.211 2.128 10.531 2.339v9.81c-.833.442-5.281 2.972-5.281 6.601zm9.781-5c0 .138-.112.25-.25.25h-2.5c-.138 0-.25-.112-.25-.25v-13.5c0-.136.114-.25.25-.25h2.5c.138 0 .25.112.25.25z"/></svg>